<?xml version="1.0" encoding="UTF-8" standalone="no"?>
<!DOCTYPE svg PUBLIC "-//W3C//DTD SVG 1.1//EN" "http://www.w3.org/Graphics/SVG/1.1/DTD/svg11.dtd">
<!-- Generated by Microsoft Visio, SVG Export cassiopeia.svg Page-1 -->
<svg xmlns="http://www.w3.org/2000/svg" xmlns:xlink="http://www.w3.org/1999/xlink" xmlns:ev="http://www.w3.org/2001/xml-events"
		width="5.60231in" height="2.4183in" viewBox="0 0 403.366 174.118" xml:space="preserve" color-interpolation-filters="sRGB"
		class="st9">
	<style type="text/css">
	<![CDATA[
		.st1 {visibility:visible}
		.st2 {fill:#000000;fill-opacity:0.2;filter:url(#filter_4);stroke:#000000;stroke-linecap:round;stroke-linejoin:round;stroke-opacity:0.2}
		.st3 {fill:url(#grad8-7);stroke:#1e77c8;stroke-linecap:round;stroke-linejoin:round;stroke-width:0.5}
		.st4 {stroke:#f2f2f2;stroke-linecap:round;stroke-linejoin:round;stroke-width:1}
		.st5 {marker-end:url(#mrkr4-21);stroke:#f2f2f2;stroke-linecap:round;stroke-linejoin:round;stroke-width:1}
		.st6 {fill:#f2f2f2;fill-opacity:1;stroke:#f2f2f2;stroke-opacity:1;stroke-width:0.28409090909091}
		.st7 {fill:none;stroke:none;stroke-linecap:round;stroke-linejoin:round;stroke-width:0.5}
		.st8 {fill:#1e77c8;font-family:Trench;font-size:4.99999em;font-weight:bold}
		.st9 {fill:none;fill-rule:evenodd;font-size:12px;overflow:visible;stroke-linecap:square;stroke-miterlimit:3}
	]]>
	</style>

	<defs id="Patterns_And_Gradients">
		<pattern id="grad8-7" x="0" y="0" width="1" height="1" patternContentUnits="objectBoundingBox">
			<path d="M 0 0 L 1 0 L 1 1 z" style="fill:url(#grad0-8)"/>
			<path d="M 0 0 L 0 1 L 1 1 z" style="fill:url(#grad0-9)"/>
		</pattern>
		<linearGradient id="grad0-8" x1="0" y1="0" x2="1" y2="0" gradientTransform="rotate(270 0.5 0.5)">
			<stop offset="0.42" stop-color="#ffffff" stop-opacity="1"/>
			<stop offset="0.79" stop-color="#ecf1fc" stop-opacity="1"/>
			<stop offset="1" stop-color="#d9e3f9" stop-opacity="1"/>
		</linearGradient>
		<linearGradient id="grad0-9" x1="0" y1="0" x2="1" y2="0" gradientTransform="rotate(180 0.5 0.5)">
			<stop offset="0.42" stop-color="#ffffff" stop-opacity="1"/>
			<stop offset="0.79" stop-color="#ecf1fc" stop-opacity="1"/>
			<stop offset="1" stop-color="#d9e3f9" stop-opacity="1"/>
		</linearGradient>
	</defs>
	<defs id="Markers">
		<g id="lend4">
			<path d="M 2 1 L 0 0 L 2 -1 L 2 1 " style="stroke:none"/>
		</g>
		<marker id="mrkr4-21" class="st6" refX="-7.04" orient="auto" markerUnits="strokeWidth" overflow="visible">
			<use xlink:href="#lend4" transform="scale(-3.52,-3.52) "/>
		</marker>
	</defs>
	<defs id="Filters">
		<filter id="filter_4">
			<feGaussianBlur stdDeviation="4"/>
		</filter>
	</defs>
	<g>
		<title>Page-1</title>
		<g id="shape4-1" transform="translate(311.667,-145.521)">
			<title>4-Point Star</title>
			<g id="shadow4-2" transform="matrix(1,0,0.259988,0.16884,-45.2685,144.72)" class="st1">
				<path d="M14.17 145.77 L18.43 155.69 L28.35 159.94 L18.43 164.2 L14.17 174.12 L9.92 164.2 L0 159.94 L9.92 155.69
							 L14.17 145.77 Z" class="st2"/>
			</g>
			<path d="M14.17 145.77 L18.43 155.69 L28.35 159.94 L18.43 164.2 L14.17 174.12 L9.92 164.2 L0 159.94 L9.92 155.69 L14.17
						 145.77 Z" class="st3"/>
		</g>
		<g id="shape32-10" transform="translate(150.093,-14.9623)">
			<title>Dynamic connector</title>
			<path d="M0 174.12 L-87.87 113.01" class="st4"/>
		</g>
		<g id="shape33-13" transform="translate(150.093,-14.9623)">
			<title>Dynamic connector.33</title>
			<path d="M0 174.12 L66.53 113.25" class="st4"/>
		</g>
		<g id="shape34-16" transform="translate(222.62,-75.8284)">
			<title>Dynamic connector.34</title>
			<path d="M0 174.12 L85.45 212.12" class="st5"/>
		</g>
		<g id="shape35-22" transform="translate(327.258,-145.521)">
			<title>Dynamic connector.35</title>
			<path d="M-1.42 174.12 L-12.04 277.67" class="st5"/>
		</g>
		<g id="shape14-27" transform="translate(110.94,-10.5033) rotate(-12.9946)">
			<title>Center Drag Circle.14</title>
			<g id="shadow14-28" transform="matrix(0.901011,0.168963,0.42895,0.267829,-74.6879,127.484)" class="st1">
				<path d="M-8.71 174.12 A8.71033 8.71033 0 0 1 8.71 174.12 A8.71033 8.71033 0 1 1 -8.71 174.12 Z" class="st2"/>
			</g>
			<path d="M-8.71 174.12 A8.71033 8.71033 0 0 1 8.71 174.12 A8.71033 8.71033 0 1 1 -8.71 174.12 Z" class="st3"/>
		</g>
		<g id="shape15-33" transform="translate(314.502,-34.9702)">
			<title>Center Drag Circle.15</title>
			<g id="shadow15-34" transform="matrix(1,0,0.259988,0.16884,-45.2685,144.72)" class="st1">
				<path d="M-9.94 174.12 A9.93956 9.93956 0 0 1 9.94 174.12 A9.93956 9.93956 0 1 1 -9.94 174.12 Z" class="st2"/>
			</g>
			<path d="M-9.94 174.12 A9.93956 9.93956 0 0 1 9.94 174.12 A9.93956 9.93956 0 1 1 -9.94 174.12 Z" class="st3"/>
		</g>
		<g id="shape19-39" transform="translate(209.62,-68.8284)">
			<title>4-Point Star.19</title>
			<g id="shadow19-40" transform="matrix(1,0,0.259988,0.16884,-45.2685,144.72)" class="st1">
				<path d="M10 154.12 L13 161.12 L20 164.12 L13 167.12 L10 174.12 L7 167.12 L0 164.12 L7 161.12 L10 154.12 Z"
						class="st2"/>
			</g>
			<path d="M10 154.12 L13 161.12 L20 164.12 L13 167.12 L10 174.12 L7 167.12 L0 164.12 L7 161.12 L10 154.12 Z" class="st3"/>
		</g>
		<g id="shape1-45" transform="translate(0.25,-68.9859)">
			<title>Sheet.1</title>
			<desc>CASSIOPEIA</desc>
			<rect x="0" y="154.118" width="402.866" height="20" class="st7"/>
			<text x="44.68" y="182.12" class="st8">CASSIOPEIA</text>		</g>
	</g>
</svg>
